HIERARCHY
ROOT Pelvis
{
	OFFSET 0.000000 0.000000 0.000000
	CHANNELS 6 Xposition Yposition Zposition Xrotation Yrotation Zrotation
	JOINT LeftUpLeg_virtual
	{
		OFFSET 0.000000 0.000000 0.000000
		CHANNELS 3 Xrotation Yrotation Zrotation
		JOINT LeftUpLeg
		{
			OFFSET 18.735201 -5.666702 -4.541200
			CHANNELS 3 Xrotation Yrotation Zrotation
			JOINT LeftLeg
			{
				OFFSET -0.021200 -31.938179 0.493100
				CHANNELS 3 Xrotation Yrotation Zrotation
				JOINT LeftFoot
				{
					OFFSET 0.021200 -31.938179 -4.336299
					CHANNELS 3 Xrotation Yrotation Zrotation
					JOINT LeftToeBase
					{
						OFFSET 0.943001 -26.722000 15.023500
						CHANNELS 3 Xrotation Yrotation Zrotation
						End Site
						{
							OFFSET 0 0 0
						}
					}
				}
			}
		}
	}
	JOINT RightUpLeg_virtual
	{
		OFFSET 0.000000 0.000000 0.000000
		CHANNELS 3 Xrotation Yrotation Zrotation
		JOINT RightUpLeg
		{
			OFFSET -18.735201 -5.666702 -4.541200
			CHANNELS 3 Xrotation Yrotation Zrotation
			JOINT RightLeg
			{
				OFFSET 0.018946 -31.938133 0.493100
				CHANNELS 3 Xrotation Yrotation Zrotation
				JOINT RightFoot
				{
					OFFSET -0.018946 -31.938126 -4.336299
					CHANNELS 3 Xrotation Yrotation Zrotation
					JOINT RightToeBase
					{
						OFFSET -0.943001 -26.722004 15.023500
						CHANNELS 3 Xrotation Yrotation Zrotation
						End Site
						{
							OFFSET 0 0 0
						}
					}
				}
			}
		}
	}
	JOINT Hips_virtual
	{
		OFFSET 0.000000 0.000000 0.000000
		CHANNELS 3 Xrotation Yrotation Zrotation
		JOINT Hips
		{
			OFFSET -0.000000 -0.000000 -0.000000
			CHANNELS 3 Xrotation Yrotation Zrotation
			JOINT Spine
			{
				OFFSET 0.000000 10.199997 -0.299500
				CHANNELS 3 Xrotation Yrotation Zrotation
				JOINT Spine1
				{
					OFFSET 0.000000 11.900002 -1.516600
					CHANNELS 3 Xrotation Yrotation Zrotation
					JOINT Spine2
					{
						OFFSET 0.000000 13.600006 -2.842500
						CHANNELS 3 Xrotation Yrotation Zrotation
						JOINT Neck_virtual
						{
							OFFSET 0.000000 0.000000 0.000000
							CHANNELS 3 Xrotation Yrotation Zrotation
							JOINT Neck
							{
								OFFSET 0.000000 9.624100 -2.890100
								CHANNELS 3 Xrotation Yrotation Zrotation
								JOINT Head
								{
									OFFSET 0.000000 14.068802 -1.351900
									CHANNELS 3 Xrotation Yrotation Zrotation
									End Site
									{
										OFFSET 0 0 0
									}
								}
							}
						}
						JOINT LeftShoulder_virtual
						{
							OFFSET 0.000000 0.000000 0.000000
							CHANNELS 3 Xrotation Yrotation Zrotation
							JOINT LeftShoulder
							{
								OFFSET 15.263000 10.923401 -0.547700
								CHANNELS 3 Xrotation Yrotation Zrotation
								JOINT LeftArm
								{
									OFFSET 25.438599 -2.830597 -13.032500
									CHANNELS 3 Xrotation Yrotation Zrotation
									JOINT LeftForeArm
									{
										OFFSET 29.960503 0.000000 0.000000
										CHANNELS 3 Xrotation Yrotation Zrotation
										JOINT LeftHand
										{
											OFFSET 27.849251 0.000000 0.000000
											CHANNELS 3 Xrotation Yrotation Zrotation
											End Site
											{
												OFFSET 0 0 0
											}
										}
									}
								}
							}
						}
						JOINT RightShoulder_virtual
						{
							OFFSET 0.000000 0.000000 0.000000
							CHANNELS 3 Xrotation Yrotation Zrotation
							JOINT RightShoulder
							{
								OFFSET -15.263000 10.923401 -0.547700
								CHANNELS 3 Xrotation Yrotation Zrotation
								JOINT RightArm
								{
									OFFSET -25.438599 -2.830597 -13.032500
									CHANNELS 3 Xrotation Yrotation Zrotation
									JOINT RightForeArm
									{
										OFFSET -29.960503 0.000000 0.000000
										CHANNELS 3 Xrotation Yrotation Zrotation
										JOINT RightHand
										{
											OFFSET -27.849251 0.000000 0.000000
											CHANNELS 3 Xrotation Yrotation Zrotation
											End Site
											{
												OFFSET 0 0 0
											}
										}
									}
								}
							}
						}
					}
				}
			}
		}
	}
}
MOTION
Frames: 6
Frame Time: 0.03333333
47.104050 87.835144 26.934792 0.000000 0.000000 0.000000 -10.203240 -57.722987 -10.277378 -15.177821 11.830216 8.344975 52.882316 -9.984526 1.648137 -33.478367 15.226780 2.084937 0.000000 0.000000 0.000000 -10.203240 -57.722987 -10.277378 -17.200537 18.337943 -18.724861 36.292524 -5.755516 -7.695094 39.069061 2.239184 26.795775 0.000000 0.000000 0.000000 -10.203240 -57.722987 -10.277378 0.000000 0.000003 0.000000 9.294655 8.899891 -0.841266 2.556081 17.404591 -2.385635 0.000000 0.000000 0.000000 3.099505 13.576355 -1.746532 -0.333323 -1.642678 0.117561 0.000000 0.000000 0.000000 3.099505 13.576355 -1.746532 -6.510679 -24.283957 -29.301512 -16.491700 27.629852 -48.402778 0.000007 -37.042356 0.000001 0.000000 0.000000 0.000000 3.099505 13.576355 -1.746532 16.094128 -29.062588 21.606089 17.231232 -22.622065 41.644807 179.999950 66.592534 -179.999964 0.000000 0.000000 0.000000 
47.084759 87.793114 28.310488 0.000000 0.000000 0.000000 -10.790565 -56.941293 -10.727625 -13.898378 11.994212 7.009251 52.903756 -10.282180 2.001649 -34.438852 15.227104 3.253971 0.000000 0.000000 0.000000 -10.790565 -56.941293 -10.727625 -20.489471 20.070782 -15.680916 40.543214 -4.594729 -7.880099 38.978483 3.889179 23.539011 0.000000 0.000000 0.000000 -10.790565 -56.941293 -10.727625 0.000000 0.000000 0.000000 9.725103 7.950554 -0.929930 2.662958 17.145940 -2.401210 0.000000 0.000000 0.000000 3.209015 13.582547 -1.840705 -0.334172 -1.641655 0.146712 0.000000 0.000000 0.000000 3.209015 13.582547 -1.840705 -6.690960 -24.917025 -29.325745 -17.150497 26.242825 -47.937737 0.000001 -37.261400 -0.000009 0.000000 0.000000 0.000000 3.209015 13.582547 -1.840705 16.288808 -29.166725 21.993795 17.892155 -24.268789 42.118737 -179.999923 66.114551 179.999923 0.000000 0.000000 0.000000 
47.155434 87.934265 29.768324 0.000000 0.000000 0.000000 -11.237293 -55.935049 -11.188687 -12.538869 12.154999 5.808685 52.428109 -10.275249 2.314191 -34.963745 14.695181 4.262029 0.000000 0.000000 0.000000 -11.237293 -55.935049 -11.188687 -24.593968 21.457359 -12.039525 46.481971 -4.344317 -8.124107 35.800501 6.109232 20.700717 0.000000 0.000000 0.000000 -11.237293 -55.935049 -11.188687 0.000000 0.000001 0.000000 10.122476 6.890924 -0.799117 2.778477 16.848642 -2.408986 0.000000 0.000000 0.000000 3.327782 13.548338 -1.925066 -0.335426 -1.635050 0.172310 0.000000 0.000000 0.000000 3.327782 13.548338 -1.925066 -6.858134 -25.585238 -29.281236 -17.849560 24.629992 -47.582014 -0.000006 -37.102370 -0.000022 0.000000 0.000000 0.000000 3.327782 13.548338 -1.925066 16.428060 -29.286150 22.283892 18.343112 -25.660565 42.553055 -179.999964 65.956036 179.999964 0.000000 0.000000 0.000000 
47.264214 88.182434 31.259037 0.000000 0.000000 0.000000 -11.439687 -54.665269 -11.529929 -11.251264 12.276848 4.850976 51.653736 -10.057821 2.518226 -35.151364 13.612127 5.101728 0.000000 0.000000 0.000000 -11.439687 -54.665269 -11.529929 -28.485172 22.122107 -8.422612 51.558240 -4.516785 -8.074709 32.351065 9.162344 18.066614 0.000000 0.000000 0.000000 -11.439687 -54.665269 -11.529929 0.000000 0.000001 0.000000 10.441762 5.664687 -0.508965 2.886334 16.500525 -2.402979 0.000000 0.000000 0.000000 3.439224 13.460949 -1.993053 -0.331650 -1.621514 0.196741 0.000000 0.000000 0.000000 3.439224 13.460949 -1.993053 -7.018226 -26.326419 -29.169303 -18.434949 23.003975 -47.374014 0.000009 -36.923265 0.000020 0.000000 0.000000 0.000000 3.439224 13.460949 -1.993053 16.511899 -29.414705 22.476727 18.832071 -26.862719 43.040492 -179.999964 65.978657 179.999964 0.000000 0.000000 0.000000 
47.367001 88.460297 32.748482 0.000000 0.000000 0.000000 -11.350312 -53.140880 -11.658869 -10.130520 12.346865 4.142218 50.771771 -9.892156 2.588149 -35.156380 12.183802 5.885536 0.000000 0.000000 0.000000 -11.350312 -53.140880 -11.658869 -31.957823 22.182132 -5.166825 55.453862 -4.979204 -7.759289 29.374465 12.744856 15.981010 0.000000 0.000000 0.000000 -11.350312 -53.140880 -11.658869 0.000000 0.000001 0.000000 10.661123 4.255604 -0.138259 2.977887 16.101295 -2.382549 0.000000 0.000000 0.000000 3.534445 13.319122 -2.043646 -0.321155 -1.601663 0.222610 0.000000 0.000000 0.000000 3.534445 13.319122 -2.043646 -7.175185 -27.162809 -28.995198 -18.803847 21.533239 -47.316112 -0.000006 -37.046721 -0.000006 0.000000 0.000000 0.000000 3.534445 13.319122 -2.043646 16.548158 -29.518025 22.591566 19.288166 -27.835977 43.500461 179.999964 66.130861 -179.999964 0.000000 0.000000 0.000000 
47.454140 88.739548 34.229584 0.000000 0.000000 0.000000 -11.002120 -51.421465 -11.571835 -9.161477 12.351243 3.630335 49.813707 -9.765064 2.524084 -35.027853 10.489073 6.590163 0.000000 0.000000 0.000000 -11.002120 -51.421465 -11.571835 -34.936438 21.841697 -2.434043 58.128216 -5.690914 -7.248285 26.967281 16.407521 14.571821 0.000000 0.000000 0.000000 -11.002120 -51.421465 -11.571835 -0.000001 -0.000002 -0.000000 10.787240 2.701758 0.263359 3.054876 15.663584 -2.352307 0.000000 0.000000 0.000000 3.615013 13.134277 -2.081372 -0.307015 -1.578038 0.250801 0.000000 0.000000 0.000000 3.615013 13.134277 -2.081372 -7.328471 -28.082446 -28.771113 -18.947623 20.246117 -47.384506 0.000022 -37.580288 0.000010 0.000000 0.000000 0.000000 3.615013 13.134277 -2.081372 16.552036 -29.563019 22.660659 19.613136 -28.573950 43.849692 179.999964 66.371475 -179.999978 0.000000 0.000000 0.000000 
